<svg xmlns="http://www.w3.org/2000/svg" xmlns:xlink="http://www.w3.org/1999/xlink" width="500" zoomAndPan="magnify" viewBox="0 0 375 374.999991" height="500" preserveAspectRatio="xMidYMid meet" version="1.0"><defs><g/><clipPath id="1f1e7239fe"><path d="M 92.597656 91.449219 L 284.703125 91.449219 L 284.703125 283.550781 L 92.597656 283.550781 Z M 92.597656 91.449219 " clip-rule="nonzero"/></clipPath><clipPath id="77d5239e54"><path d="M 188.648438 91.449219 C 135.601562 91.449219 92.597656 134.453125 92.597656 187.5 C 92.597656 240.546875 135.601562 283.550781 188.648438 283.550781 C 241.699219 283.550781 284.703125 240.546875 284.703125 187.5 C 284.703125 134.453125 241.699219 91.449219 188.648438 91.449219 Z M 188.648438 91.449219 " clip-rule="nonzero"/></clipPath><clipPath id="ab0f387ac9"><path d="M 97.394531 96.246094 L 279.644531 96.246094 L 279.644531 278.496094 L 97.394531 278.496094 Z M 97.394531 96.246094 " clip-rule="nonzero"/></clipPath><clipPath id="5b6ab9c114"><path d="M 188.648438 96.246094 C 138.25 96.246094 97.394531 137.101562 97.394531 187.5 C 97.394531 237.898438 138.25 278.753906 188.648438 278.753906 C 239.046875 278.753906 279.902344 237.898438 279.902344 187.5 C 279.902344 137.101562 239.046875 96.246094 188.648438 96.246094 Z M 188.648438 96.246094 " clip-rule="nonzero"/></clipPath><clipPath id="eb312a9237"><path d="M 112.558594 167.078125 L 206 167.078125 L 206 203 L 112.558594 203 Z M 112.558594 167.078125 " clip-rule="nonzero"/></clipPath><clipPath id="f0007ed8fb"><path d="M 150 167.078125 L 262.558594 167.078125 L 262.558594 215 L 150 215 Z M 150 167.078125 " clip-rule="nonzero"/></clipPath></defs><rect x="-37.5" width="450" fill="#ffffff" y="-37.499999" height="449.999989" fill-opacity="1"/><rect x="-37.5" width="450" fill="#ffffff" y="-37.499999" height="449.999989" fill-opacity="1"/><g clip-path="url(#1f1e7239fe)"><g clip-path="url(#77d5239e54)"><path fill="#002d4d" d="M 92.597656 91.449219 L 284.703125 91.449219 L 284.703125 283.550781 L 92.597656 283.550781 Z M 92.597656 91.449219 " fill-opacity="1" fill-rule="nonzero"/></g></g><g clip-path="url(#ab0f387ac9)"><g clip-path="url(#5b6ab9c114)"><path stroke-linecap="butt" transform="matrix(0.75, 0, 0, 0.75, 97.394917, 96.245737)" fill="none" stroke-linejoin="miter" d="M 121.671377 0.000475827 C 54.473452 0.000475827 -0.000513673 54.474441 -0.000513673 121.672367 C -0.000513673 188.870292 54.473452 243.344257 121.671377 243.344257 C 188.869302 243.344257 243.343268 188.870292 243.343268 121.672367 C 243.343268 54.474441 188.869302 0.000475827 121.671377 0.000475827 Z M 121.671377 0.000475827 " stroke="#002d4d" stroke-width="10" stroke-opacity="1" stroke-miterlimit="4"/></g></g><g clip-path="url(#eb312a9237)"><path fill="#ffffff" d="M 125.753906 202.460938 C 124.109375 197.285156 126.058594 191.621094 130.445312 188.515625 C 134.890625 185.347656 140.796875 185.410156 145.183594 188.574219 C 149.566406 191.804688 151.394531 197.40625 149.75 202.582031 C 149.75 202.582031 157.910156 194.484375 174.292969 178.285156 C 175.265625 177.125 176.484375 176.640625 178.007812 176.761719 C 178.007812 176.761719 180.6875 176.761719 186.046875 176.761719 C 187.445312 176.699219 188.542969 177.125 189.335938 178.160156 C 189.335938 178.160156 190.613281 179.5 193.171875 182.242188 C 193.660156 183.214844 195 183.582031 197.191406 183.398438 C 197.191406 183.398438 199.992188 183.398438 205.65625 183.398438 C 205.65625 183.398438 201.027344 178.589844 191.710938 169.027344 C 191.34375 167.6875 190.125 167.078125 188.179688 167.199219 C 188.179688 167.199219 184.28125 167.320312 176.484375 167.441406 C 174.902344 167.078125 173.5625 167.566406 172.464844 168.90625 C 172.464844 168.90625 169.90625 171.339844 164.914062 176.210938 C 163.511719 177.675781 161.808594 178.34375 159.796875 178.101562 C 159.796875 178.101562 149.808594 178.101562 129.773438 178.222656 C 124.960938 177.492188 121.796875 179.136719 120.273438 183.035156 C 120.273438 183.035156 117.777344 189.429688 112.722656 202.21875 C 121.371094 202.398438 125.753906 202.460938 125.753906 202.460938 Z M 125.753906 202.460938 " fill-opacity="1" fill-rule="evenodd"/></g><g clip-path="url(#f0007ed8fb)"><path fill="#ffffff" d="M 169.726562 194.238281 C 159.980469 203.679688 155.109375 208.429688 155.109375 208.429688 C 154.011719 209.34375 152.429688 209.34375 151.332031 208.492188 C 150.175781 207.578125 149.808594 206.054688 150.480469 204.714844 C 161.6875 193.265625 167.289062 187.539062 167.289062 187.539062 C 173.136719 181.753906 176.058594 178.890625 176.058594 178.890625 C 176.726562 178.222656 177.640625 177.980469 178.800781 178.160156 C 183.488281 178.101562 185.800781 178.101562 185.800781 178.101562 C 187.140625 178.039062 188.117188 178.648438 188.726562 179.867188 C 191.101562 182.304688 192.320312 183.519531 192.320312 183.519531 C 193.292969 184.496094 194.449219 184.859375 195.789062 184.679688 C 204.558594 184.679688 208.945312 184.679688 208.945312 184.679688 C 197.921875 173.410156 192.441406 167.808594 192.441406 167.808594 C 198.410156 167.6875 201.394531 167.625 201.394531 167.625 C 202.855469 167.625 204.132812 168.050781 205.351562 169.027344 C 211.6875 175.300781 214.851562 178.464844 214.851562 178.464844 C 246.398438 178.285156 262.171875 178.222656 262.171875 178.222656 C 257.726562 190.402344 255.535156 196.492188 255.535156 196.492188 C 254.4375 200.023438 252.246094 202.035156 248.835938 202.398438 C 250.359375 197.285156 248.53125 191.863281 244.265625 188.699219 C 240.003906 185.589844 234.21875 185.53125 229.835938 188.515625 C 225.511719 191.5 223.5 196.917969 224.839844 202.035156 C 216.558594 194.179688 212.417969 190.28125 212.417969 190.28125 C 208.519531 189.003906 206.023438 190.21875 204.925781 193.933594 C 203.707031 192.65625 201.757812 192.109375 200.054688 192.65625 C 198.289062 193.203125 197.007812 194.664062 196.703125 196.492188 C 195.363281 195.152344 193.355469 194.726562 191.589844 195.335938 C 189.820312 196.003906 188.605469 197.648438 188.421875 199.476562 C 186.714844 197.589844 183.792969 197.34375 181.785156 198.929688 C 179.773438 200.453125 179.285156 203.3125 180.746094 205.445312 C 175.085938 211.167969 172.222656 214.03125 172.222656 214.03125 C 171.066406 214.945312 169.421875 214.945312 168.261719 214.03125 C 167.046875 213.117188 166.679688 211.472656 167.289062 210.132812 C 173.441406 204.042969 176.546875 201 176.546875 201 C 176.851562 200.816406 176.972656 200.453125 176.851562 200.085938 C 176.726562 199.71875 176.484375 199.476562 176.121094 199.476562 C 175.753906 199.417969 175.449219 199.597656 175.265625 199.902344 C 167.472656 207.515625 163.511719 211.292969 163.511719 211.292969 C 162.355469 211.777344 160.957031 211.597656 159.980469 210.742188 C 158.945312 209.890625 158.519531 208.550781 158.882812 207.273438 C 166.863281 199.234375 170.882812 195.273438 170.882812 195.273438 C 171.066406 195.03125 171.125 194.726562 171.066406 194.484375 C 171.003906 194.179688 170.761719 193.996094 170.457031 193.933594 C 170.210938 193.933594 169.90625 193.996094 169.726562 194.238281 Z M 169.726562 194.238281 " fill-opacity="1" fill-rule="evenodd"/></g><path fill="#ffffff" d="M 175.753906 212.8125 C 175.386719 214.214844 175.996094 215.796875 177.277344 216.527344 C 178.554688 217.320312 180.199219 217.136719 181.296875 216.101562 C 181.296875 216.101562 182.941406 214.398438 186.167969 211.046875 C 186.167969 211.046875 184.707031 209.585938 181.722656 206.601562 C 177.765625 210.742188 175.753906 212.8125 175.753906 212.8125 Z M 175.753906 212.8125 " fill-opacity="1" fill-rule="evenodd"/><path fill="#ffffff" d="M 181.785156 204.167969 C 181.296875 202.886719 181.660156 201.363281 182.695312 200.453125 C 183.792969 199.539062 185.316406 199.417969 186.535156 200.148438 C 186.535156 200.148438 190.734375 204.347656 199.140625 212.753906 C 199.808594 214.214844 199.324219 215.980469 197.984375 216.894531 C 196.582031 217.808594 194.753906 217.566406 193.660156 216.347656 C 193.660156 216.347656 189.699219 212.265625 181.785156 204.167969 Z M 181.785156 204.167969 " fill-opacity="1" fill-rule="evenodd"/><path fill="#ffffff" d="M 190.003906 201.304688 C 189.519531 200.023438 189.882812 198.503906 190.917969 197.589844 C 192.015625 196.675781 193.535156 196.554688 194.753906 197.285156 C 194.753906 197.285156 198.957031 201.488281 207.363281 209.890625 C 208.03125 211.351562 207.542969 213.117188 206.144531 214.03125 C 204.804688 214.945312 202.976562 214.703125 201.878906 213.484375 C 201.878906 213.484375 197.921875 209.402344 190.003906 201.304688 Z M 190.003906 201.304688 " fill-opacity="1" fill-rule="evenodd"/><path fill="#ffffff" d="M 198.46875 198.441406 C 197.984375 197.101562 198.347656 195.640625 199.445312 194.726562 C 200.480469 193.8125 202.003906 193.691406 203.21875 194.421875 C 203.21875 194.421875 207.421875 198.625 215.828125 206.96875 C 216.496094 208.492188 216.007812 210.257812 214.667969 211.171875 C 213.269531 212.082031 211.441406 211.839844 210.347656 210.5625 C 210.347656 210.5625 206.386719 206.542969 198.46875 198.441406 Z M 198.46875 198.441406 " fill-opacity="1" fill-rule="evenodd"/><path fill="#ffffff" d="M 207.117188 195.578125 C 206.570312 194.238281 206.996094 192.777344 208.03125 191.863281 C 209.128906 190.949219 210.648438 190.828125 211.867188 191.558594 C 211.867188 191.558594 216.070312 195.761719 224.414062 204.105469 C 225.144531 205.628906 224.65625 207.394531 223.257812 208.308594 C 221.917969 209.222656 220.089844 208.976562 218.992188 207.699219 C 218.992188 207.699219 215.035156 203.679688 207.117188 195.578125 Z M 207.117188 195.578125 " fill-opacity="1" fill-rule="evenodd"/><path fill="#ffffff" d="M 137.875 187.722656 C 143.71875 187.722656 148.53125 192.472656 148.53125 198.378906 C 148.53125 204.289062 143.71875 209.039062 137.875 209.039062 C 131.964844 209.039062 127.15625 204.289062 127.15625 198.378906 C 127.15625 192.472656 131.964844 187.722656 137.875 187.722656 Z M 137.875 192.71875 C 140.980469 192.71875 143.476562 195.273438 143.476562 198.378906 C 143.476562 201.488281 140.980469 204.042969 137.875 204.042969 C 134.707031 204.042969 132.210938 201.488281 132.210938 198.378906 C 132.210938 195.273438 134.707031 192.71875 137.875 192.71875 Z M 137.875 192.71875 " fill-opacity="1" fill-rule="evenodd"/><path fill="#ffffff" d="M 237.203125 187.722656 C 243.050781 187.722656 247.859375 192.472656 247.859375 198.378906 C 247.859375 204.289062 243.050781 209.039062 237.203125 209.039062 C 231.296875 209.039062 226.484375 204.289062 226.484375 198.378906 C 226.484375 192.472656 231.296875 187.722656 237.203125 187.722656 Z M 237.203125 192.71875 C 240.308594 192.71875 242.804688 195.273438 242.804688 198.378906 C 242.804688 201.488281 240.308594 204.042969 237.203125 204.042969 C 234.035156 204.042969 231.539062 201.488281 231.539062 198.378906 C 231.539062 195.273438 234.035156 192.71875 237.203125 192.71875 Z M 237.203125 192.71875 " fill-opacity="1" fill-rule="evenodd"/><g fill="#ffffff" fill-opacity="1"><g transform="translate(137.471528, 149.616026)"><g><path d="M -10.8125 -17.28125 L -1.53125 -24.25 C -0.0195312 -25.382812 1.347656 -25.878906 2.578125 -25.734375 C 3.804688 -25.585938 4.953125 -24.804688 6.015625 -23.390625 C 6.710938 -22.460938 7.078125 -21.554688 7.109375 -20.671875 C 7.148438 -19.796875 6.960938 -19.019531 6.546875 -18.34375 C 8.054688 -18.945312 9.535156 -18.75 10.984375 -17.75 C 11.492188 -17.382812 11.988281 -16.882812 12.46875 -16.25 C 13.601562 -14.738281 14.082031 -13.359375 13.90625 -12.109375 C 13.726562 -10.867188 12.882812 -9.675781 11.375 -8.53125 L 1.390625 -1.046875 Z M 7.75 -13.8125 C 7.0625 -14.738281 6.253906 -14.859375 5.328125 -14.171875 L 0.703125 -10.6875 L 3.140625 -7.4375 L 7.765625 -10.921875 C 8.691406 -11.609375 8.804688 -12.414062 8.109375 -13.34375 Z M 2.203125 -19.78125 C 1.492188 -20.71875 0.675781 -20.835938 -0.25 -20.140625 L -4.1875 -17.1875 L -1.734375 -13.9375 L 2.203125 -16.890625 C 3.128906 -17.585938 3.242188 -18.394531 2.546875 -19.3125 Z M 2.203125 -19.78125 "/></g></g></g><g fill="#ffffff" fill-opacity="1"><g transform="translate(155.544958, 136.378496)"><g><path d="M -4.8125 -19.8125 L 6.75 -23.6875 C 8.675781 -24.332031 10.222656 -24.363281 11.390625 -23.78125 C 12.566406 -23.195312 13.472656 -21.941406 14.109375 -20.015625 L 14.9375 -17.546875 C 15.445312 -16.023438 15.59375 -14.753906 15.375 -13.734375 C 15.15625 -12.710938 14.535156 -11.890625 13.515625 -11.265625 L 18.984375 -6.359375 L 13.609375 -4.5625 L 8.515625 -9.28125 L 4.671875 -8 L 6.609375 -2.21875 L 1.640625 -0.546875 Z M 9.140625 -18.359375 C 8.773438 -19.460938 8.046875 -19.828125 6.953125 -19.453125 L 1.453125 -17.625 L 3.390625 -11.84375 L 8.890625 -13.671875 C 9.984375 -14.046875 10.34375 -14.785156 9.96875 -15.890625 Z M 9.140625 -18.359375 "/></g></g></g><g fill="#ffffff" fill-opacity="1"><g transform="translate(177.155446, 129.475522)"><g><path d="M 5.375 -0.015625 L -0.296875 0 L 7.375 -20.328125 L 13.171875 -20.34375 L 20.890625 -0.03125 L 15.234375 -0.03125 L 13.921875 -3.65625 L 6.671875 -3.640625 Z M 7.96875 -7.421875 L 12.609375 -7.421875 L 10.265625 -14.234375 Z M 7.96875 -7.421875 "/></g></g></g><g fill="#ffffff" fill-opacity="1"><g transform="translate(199.566735, 129.725518)"><g><path d="M 11.6875 -2.578125 L 20.8125 -14.546875 L 26.1875 -12.78125 L 12.546875 4.125 L 7.03125 2.3125 L 6.0625 -19.390625 L 11.453125 -17.625 Z M 11.6875 -2.578125 "/></g></g></g><g fill="#ffffff" fill-opacity="1"><g transform="translate(220.762953, 136.949151)"><g><path d="M 20.703125 -3.015625 C 21.390625 -3.941406 21.269531 -4.75 20.34375 -5.4375 L 16.390625 -8.390625 C 15.460938 -9.085938 14.65625 -8.972656 13.96875 -8.046875 L 8.421875 -0.609375 C 7.722656 0.328125 7.835938 1.144531 8.765625 1.84375 L 12.71875 4.796875 C 13.644531 5.484375 14.457031 5.359375 15.15625 4.421875 Z M 19.34375 7.53125 C 18.125 9.15625 16.875 10.0625 15.59375 10.25 C 14.3125 10.445312 12.859375 9.941406 11.234375 8.734375 L 5.421875 4.40625 C 3.785156 3.1875 2.867188 1.929688 2.671875 0.640625 C 2.484375 -0.648438 3 -2.109375 4.21875 -3.734375 L 9.765625 -11.171875 C 10.972656 -12.804688 12.222656 -13.710938 13.515625 -13.890625 C 14.804688 -14.078125 16.269531 -13.5625 17.90625 -12.34375 L 23.71875 -8.015625 C 25.34375 -6.804688 26.242188 -5.5625 26.421875 -4.28125 C 26.609375 -3 26.097656 -1.539062 24.890625 0.09375 Z M 19.34375 7.53125 "/></g></g></g><g fill="#ffffff" fill-opacity="1"><g transform="translate(138.392036, 251.002779)"><g><path d="M 7.65625 4.578125 C 5.675781 3.578125 4.066406 2.691406 2.828125 1.921875 C 2.003906 1.410156 1.515625 0.84375 1.359375 0.21875 C 1.210938 -0.40625 1.394531 -1.128906 1.90625 -1.953125 L 4.421875 -6 C 4.960938 -6.882812 5.554688 -7.40625 6.203125 -7.5625 C 6.859375 -7.71875 7.628906 -7.519531 8.515625 -6.96875 L 13.0625 -4.140625 L 11.96875 -2.375 L 7.921875 -4.890625 C 7.421875 -5.203125 7.015625 -5.101562 6.703125 -4.59375 L 4.1875 -0.546875 C 4.070312 -0.359375 4.035156 -0.171875 4.078125 0.015625 C 4.117188 0.203125 4.226562 0.347656 4.40625 0.453125 C 4.582031 0.566406 4.773438 0.6875 4.984375 0.8125 C 5.203125 0.9375 5.425781 1.066406 5.65625 1.203125 C 5.882812 1.335938 6.113281 1.472656 6.34375 1.609375 C 6.582031 1.742188 6.894531 1.910156 7.28125 2.109375 C 7.664062 2.304688 8.144531 2.5625 8.71875 2.875 Z M 7.65625 4.578125 "/></g></g></g><g fill="#ffffff" fill-opacity="1"><g transform="translate(148.62841, 257.178644)"><g><path d="M 2.515625 1.09375 L -0.140625 -0.0625 L 7.640625 -8.015625 L 10.359375 -6.828125 L 9.8125 4.28125 L 7.140625 3.109375 L 7.28125 1.140625 L 3.890625 -0.328125 Z M 5.265625 -1.84375 L 7.4375 -0.90625 L 7.75 -4.5625 Z M 5.265625 -1.84375 "/></g></g></g><g fill="#ffffff" fill-opacity="1"><g transform="translate(160.924322, 262.314095)"><g><path d="M 3.515625 -9.828125 L 9.546875 -8.25 C 10.554688 -7.976562 11.226562 -7.550781 11.5625 -6.96875 C 11.90625 -6.394531 11.945312 -5.609375 11.6875 -4.609375 L 11.34375 -3.3125 C 11.125 -2.519531 10.820312 -1.9375 10.4375 -1.5625 C 10.050781 -1.1875 9.550781 -1.003906 8.9375 -1.015625 L 9.90625 2.609375 L 7.109375 1.875 L 6.25 -1.578125 L 4.234375 -2.109375 L 3.4375 0.90625 L 0.859375 0.234375 Z M 9.09375 -5.28125 C 9.238281 -5.851562 9.019531 -6.21875 8.4375 -6.375 L 5.5625 -7.140625 L 4.765625 -4.125 L 7.640625 -3.359375 C 8.222656 -3.203125 8.59375 -3.410156 8.75 -3.984375 Z M 9.09375 -5.28125 "/></g></g></g><g fill="#ffffff" fill-opacity="1"><g transform="translate(173.882877, 265.389583)"><g/></g></g><g fill="#ffffff" fill-opacity="1"><g transform="translate(180.907407, 266.418895)"><g><path d="M 6.953125 -10.234375 C 8.066406 -10.210938 8.90625 -9.898438 9.46875 -9.296875 C 10.039062 -8.703125 10.3125 -7.847656 10.28125 -6.734375 L 10.1875 -3.171875 C 10.164062 -2.046875 9.851562 -1.203125 9.25 -0.640625 C 8.65625 -0.078125 7.800781 0.191406 6.6875 0.171875 L 0.890625 0.015625 L 1.15625 -10.390625 Z M 7.609375 -6.796875 C 7.628906 -7.691406 7.191406 -8.148438 6.296875 -8.171875 L 3.765625 -8.234375 L 3.609375 -1.984375 L 6.140625 -1.921875 C 7.035156 -1.898438 7.492188 -2.335938 7.515625 -3.234375 Z M 7.609375 -6.796875 "/></g></g></g><g fill="#ffffff" fill-opacity="1"><g transform="translate(194.35058, 266.505439)"><g><path d="M 9.078125 -1.109375 L 0.890625 -0.109375 L -0.375 -10.4375 L 7.8125 -11.4375 L 8.0625 -9.375 L 2.515625 -8.703125 L 2.765625 -6.703125 L 7.125 -7.234375 L 7.375 -5.171875 L 3.015625 -4.640625 L 3.28125 -2.5 L 8.828125 -3.171875 Z M 9.078125 -1.109375 "/></g></g></g><g fill="#ffffff" fill-opacity="1"><g transform="translate(206.423162, 264.869929)"><g><path d="M 2.65625 -0.71875 L -0.15625 0.046875 L 0.90625 -11.03125 L 3.78125 -11.8125 L 10.328125 -2.828125 L 7.515625 -2.0625 L 6.390625 -3.671875 L 2.8125 -2.703125 Z M 2.953125 -4.734375 L 5.234375 -5.359375 L 3.171875 -8.40625 Z M 2.953125 -4.734375 "/></g></g></g><g fill="#ffffff" fill-opacity="1"><g transform="translate(219.16876, 261.127136)"><g><path d="M 2.4375 -3.328125 L 7.40625 -5.5 L 8.234375 -3.59375 L 0.8125 -0.359375 L -3.34375 -9.90625 L -0.890625 -10.96875 Z M 2.4375 -3.328125 "/></g></g></g><g fill="#ffffff" fill-opacity="1"><g transform="translate(229.97877, 256.239325)"><g><path d="M -0.625 -2.140625 C 1.757812 -3.441406 3.359375 -4.34375 4.171875 -4.84375 C 4.367188 -4.96875 4.488281 -5.117188 4.53125 -5.296875 C 4.570312 -5.472656 4.53125 -5.660156 4.40625 -5.859375 L 3.703125 -7 L 0.8125 -5.21875 C -0.0820312 -4.664062 -0.847656 -4.46875 -1.484375 -4.625 C -2.128906 -4.78125 -2.722656 -5.300781 -3.265625 -6.1875 L -3.5 -6.578125 C -4.039062 -7.453125 -4.238281 -8.210938 -4.09375 -8.859375 C -3.945312 -9.503906 -3.425781 -10.101562 -2.53125 -10.65625 L 1.90625 -13.375 L 3 -11.609375 L -0.9375 -9.203125 C -1.445312 -8.890625 -1.546875 -8.484375 -1.234375 -7.984375 L -1.078125 -7.71875 C -0.765625 -7.207031 -0.351562 -7.109375 0.15625 -7.421875 L 2.4375 -8.8125 C 3.257812 -9.320312 3.984375 -9.503906 4.609375 -9.359375 C 5.242188 -9.210938 5.8125 -8.726562 6.3125 -7.90625 L 6.703125 -7.265625 C 7.210938 -6.429688 7.390625 -5.695312 7.234375 -5.0625 C 7.085938 -4.4375 6.601562 -3.867188 5.78125 -3.359375 C 5.34375 -3.085938 4.878906 -2.816406 4.390625 -2.546875 L 3.203125 -1.90625 C 2.304688 -1.414062 1.378906 -0.925781 0.421875 -0.4375 Z M -0.625 -2.140625 "/></g></g></g></svg>